 http://whysoblu.com/wp-content/uploads/2012/12/Seven-Psychopaths-Blu-ray.jpg




Source: Audio TickleTime
Video: R5 Germany

Fixed OOS 

Format                                   : AVI
Format/Info                              : Audio Video Interleave
File size                                : 1.11 GiB
Duration                                 : 1h 45mn
Overall bit rate                         : 1 507 Kbps

Video
ID                                       : 0
Format                                   : MPEG-4 Visual
Format profile                           : Advanced Simple@L5
Format settings, BVOP                    : 1
Format settings, QPel                    : No
Format settings, GMC                     : No warppoints
Format settings, Matrix                  : Default (MPEG)
Codec ID                                 : XVID
Codec ID/Hint                            : XviD
Duration                                 : 1h 45mn
Bit rate                                 : 1 371 Kbps
Width                                    : 720 pixels
Height                                   : 304 pixels
Display aspect ratio                     : 2.35:1
Frame rate                               : 25.000 fps
Color space                              : YUV
Chroma subsampling                       : 4:2:0
Bit depth                                : 8 bits
Scan type                                : Progressive
Compression mode                         : Lossy
Bits/(Pixel*Frame)                       : 0.251
Stream size                              : 1.01 GiB (91%)
Writing library                          : XviD 1.2.1 (UTC 2008-12-04)

Audio
ID                                       : 1
Format                                   : AC-3
Format/Info                              : Audio Coding 3
Mode extension                           : CM (complete main)
Format settings, Endianness              : Big
Codec ID                                 : 2000
Duration                                 : 1h 45mn
Bit rate mode                            : Constant
Bit rate                                 : 128 Kbps
Channel(s)                               : 2 channels
Channel positions                        : Front: L R
Sampling rate                            : 48.0 KHz
Bit depth                                : 16 bits
Compression mode                         : Lossy
Stream size                              : 96.7 MiB (8%)
Alignment                                : Aligned on interleaves
Interleave, duration                     : 64 ms (1.60 video frames)
Interleave, preload duration             : 192 ms


 
http://img99.imageshack.us/img99/8403/52223901.jpg 
http://img152.imageshack.us/img152/2442/10879804.jpg 
http://img4.imageshack.us/img4/3012/12818510.jpg 
http://img22.imageshack.us/img22/5951/59790910.jpg 
http://img59.imageshack.us/img59/1174/74005638.jpg